<svg width="422" height="233" xmlns="http://www.w3.org/2000/svg" preserveAspectRatio="xMidYMid meet">
 <metadata>Created by potrace 1.16, written by Peter Selinger 2001-2019</metadata>

 <g>
  <title>background</title>
  <rect fill="none" id="canvas_background" height="235" width="424" y="-1" x="-1"/>
 </g>
 <g>
  <title>Layer 1</title>
  <rect id="svg_4" height="296" width="471" y="-7.94699" x="-25.42741" stroke-opacity="null" stroke-width="null" stroke="null" fill="#000000"/>
  <path fill="#ffffff" id="svg_5" d="m-19,119.01219l0,145.5l230.5,0l230.5,0l0,-145.5l0,-145.5l-230.5,0l-230.5,0l0,145.5zm122,-87.1l0,31.3l-5.9,2.2c-11.2,4.1 -22.8,14.6 -28.6,26.1c-6.2,12.2 -7.6,28.4 -3.6,41c2.4,7.7 7.8,17 12.9,22.4c4.7,4.9 14.2,11.2 20.4,13.4l4.8,1.7l0,31.1c0,17.1 -0.2,31.3 -0.5,31.6c-0.8,0.8 -12.6,-1.6 -21,-4.2c-36.6,-11.5 -67.6,-44 -77.4,-81.4c-7.9,-30 -3.9,-61.3 11.1,-88.1c13.1,-23.3 36,-43.2 60.2,-52.2c5.9,-2.2 21.6,-6.2 24.9,-6.2l2.7,-0.1l0,31.4zm229.8,-29.4c38.9,9.3 71.8,40.3 84.1,79c6.8,21.4 6.7,50.2 -0.1,71c-7,21.5 -20,40.7 -36.6,54.4c-16.6,13.5 -36.6,22.7 -56.9,26.1l-4.3,0.7l0,-31.6c0,-29.3 0.1,-31.7 1.8,-32.2c7.7,-2.5 16.9,-8.2 23,-14.3c21.8,-21.8 21.7,-55.8 -0.2,-77.6c-6.6,-6.5 -14.7,-11.6 -22.3,-13.9l-2.3,-0.7l0,-31.5l0,-31.4l2.8,0c1.5,0 6.4,0.9 11,2zm-104.7,61.8c7.8,2.8 11.6,4.8 17.4,9.5c13.6,11 20.9,26.3 20.9,43.2c-0.1,14.8 -5.6,27.7 -16.5,38.7c-30.4,30.8 -81.5,16 -92.4,-26.7c-3.1,-12.1 -0.8,-28 5.7,-39.4c7.2,-12.6 21.8,-23.4 36.2,-26.7c7.9,-1.8 21.4,-1.1 28.7,1.4z"/>
 </g>
</svg>